<?xml version="1.0" encoding="UTF-8" standalone="no"?>
<!-- Created with Inkscape (http://www.inkscape.org/) -->

<svg
   width="30.643557mm"
   height="24.659697mm"
   viewBox="0 0 30.643557 24.659697"
   version="1.1"
   id="svg1268"
   inkscape:version="1.1 (ce6663b3b7, 2021-05-25)"
   sodipodi:docname="logo.svg"
   xmlns:inkscape="http://www.inkscape.org/namespaces/inkscape"
   xmlns:sodipodi="http://sodipodi.sourceforge.net/DTD/sodipodi-0.dtd"
   xmlns="http://www.w3.org/2000/svg"
   xmlns:svg="http://www.w3.org/2000/svg">
  <sodipodi:namedview
     id="namedview1270"
     pagecolor="#ffffff"
     bordercolor="#999999"
     borderopacity="1"
     inkscape:pageshadow="0"
     inkscape:pageopacity="0"
     inkscape:pagecheckerboard="0"
     inkscape:document-units="mm"
     showgrid="false"
     fit-margin-top="0"
     fit-margin-left="0"
     fit-margin-right="0"
     fit-margin-bottom="0"
     inkscape:zoom="0.47393378"
     inkscape:cx="-31.649991"
     inkscape:cy="9.4949973"
     inkscape:window-width="1366"
     inkscape:window-height="704"
     inkscape:window-x="0"
     inkscape:window-y="27"
     inkscape:window-maximized="1"
     inkscape:current-layer="layer1" />
  <defs
     id="defs1265" />
  <g
     inkscape:label="Calque 1"
     inkscape:groupmode="layer"
     id="layer1"
     transform="translate(-72.884993,-146.21902)">
    <path
       style="fill:#4a00b4;fill-opacity:1;stroke-width:0.2158"
       d="m 87.127772,170.67108 c -0.534101,-0.16865 -3.010405,-0.91436 -5.502889,-1.65713 l -4.53179,-1.3505 -0.06056,-2.77213 -0.06062,-2.77215 -0.586812,0.11844 c -0.322747,0.0651 -0.759892,0.18538 -0.971435,0.26721 -0.269461,0.10424 -0.124068,-0.2435 0.485549,-1.1613 0.478595,-0.72054 0.870171,-1.36181 0.870171,-1.42504 0,-0.0633 -0.873988,-0.37659 -1.942196,-0.69636 -1.727002,-0.51696 -1.942197,-0.63735 -1.942197,-1.08652 0,-0.57522 0.0019,-0.57501 2.79524,0.28363 0.95372,0.29317 1.70093,0.41756 1.835826,0.30561 0.293929,-0.24394 4.459271,1.10014 4.347976,1.40302 -0.04515,0.12281 0.923617,0.53622 2.152755,0.91872 l 2.234805,0.69544 8.431495,-4.20967 c 4.63733,-2.31531 8.52464,-4.20966 8.63848,-4.20966 0.11383,0 0.20698,0.19313 0.20698,0.42919 0,0.32029 -0.43806,0.64944 -1.7264,1.2972 l -1.7264,0.86802 -1.6e-4,5.98603 -1.6e-4,5.98603 -3.72238,0.9472 c -2.047315,0.52097 -4.499266,1.16303 -5.448783,1.4268 -2.608178,0.72455 -2.731542,0.73787 -3.776493,0.40792 z m 5.502895,-2.14438 c 2.136416,-0.55432 4.442774,-1.15498 5.12524,-1.3348 l 1.240846,-0.32695 v -5.15263 c 0,-2.83395 -0.04068,-5.15264 -0.09032,-5.15264 -0.04967,0 -2.923725,1.39396 -6.386776,3.0977 l -6.296448,3.09769 -1.883466,-0.5905 c -3.396526,-1.06486 -3.117486,-1.10052 -4.139076,0.52882 -0.48944,0.78061 -0.960601,1.41928 -1.047037,1.41928 -0.08644,0 -0.286692,-0.41272 -0.445022,-0.91715 -0.50236,-1.60055 -0.644412,-1.3884 -0.644412,0.96238 v 2.28954 l 3.506745,1.11032 c 1.928709,0.61068 4.186508,1.33914 5.01734,1.61881 0.830825,0.27968 1.656262,0.47463 1.834296,0.43324 0.178033,-0.0414 2.071679,-0.5288 4.208095,-1.08311 z m -1.536238,-2.35294 c -0.06197,-0.16148 -0.08155,-0.61602 -0.04349,-1.01007 0.06144,-0.63654 0.183496,-0.75878 1.0942,-1.09573 l 1.025052,-0.37926 v 1.05489 1.05491 l -0.981535,0.33444 c -0.816872,0.27833 -1.000436,0.28518 -1.094206,0.0408 z m 2.549459,-1.55282 c 0.06461,-0.98462 0.08294,-1.00745 1.036876,-1.29153 0.534101,-0.15905 0.995372,-0.29067 1.025046,-0.29247 0.02966,-0.002 0.05395,0.47772 0.05395,1.06559 0,1.0513 -0.01328,1.07254 -0.809251,1.29358 -1.323055,0.36744 -1.379406,0.33401 -1.306618,-0.77517 z m -2.631722,-1.67712 c 0,-1.0572 0.120508,-1.17196 1.628013,-1.55032 0.505662,-0.12691 0.529985,-0.0871 0.529985,0.86682 0,1.05721 -0.120503,1.17196 -1.628014,1.55032 -0.505657,0.12691 -0.529984,0.0871 -0.529984,-0.86682 z m 2.589599,-0.84353 c 0,-0.95848 0.02459,-0.99536 0.809244,-1.21327 1.281674,-0.35594 1.348748,-0.31957 1.348748,0.73122 0,1.09089 -0.03878,1.13172 -1.261431,1.32723 l -0.896561,0.14336 z m -12.84008,-3.40148 c -2.967249,-0.93683 -5.904816,-1.85683 -6.527941,-2.04444 -1.100586,-0.33137 -1.132866,-0.36379 -1.130083,-1.13505 l 0.003,-0.79394 8.475588,-4.26204 c 4.661578,-2.34413 8.66607,-4.25405 8.89887,-4.24428 0.232807,0.01 3.239468,0.95659 6.681476,2.10405 l 6.258185,2.08628 v 0.74273 0.74273 l -8.524084,4.25982 c -4.688249,2.34291 -8.572643,4.25705 -8.631985,4.25366 -0.05934,-0.003 -2.535646,-0.77269 -5.502895,-1.70952 z"
       id="path2631"
       inkscape:export-filename="/home/wilfried/Images/Lab Client/logo.png"
       inkscape:export-xdpi="96"
       inkscape:export-ydpi="96" />
  </g>
</svg>
